<svg width="47" height="48" viewBox="0 0 47 48" fill="none" xmlns="http://www.w3.org/2000/svg">
<path d="M40.3659 27.5281C40.3659 38.4419 31.5233 47.2845 20.6209 47.2845C9.71855 47.2845 0.864624 38.4419 0.864624 27.5281C0.864624 16.6144 9.70717 7.7832 20.6209 7.7832C22.1459 7.7832 23.6367 7.95391 25.0593 8.28394C24.7065 9.38784 24.513 10.5486 24.513 11.7663C24.513 18.0711 29.6456 23.2036 35.9503 23.2036C37.2704 23.2036 38.545 22.976 39.7286 22.5549C40.1383 24.1482 40.3545 25.8097 40.3545 27.5281H40.3659Z" fill="#BA9B72"/>
<path d="M47.0001 11.7662C47.0001 16.5687 43.9274 20.6656 39.637 22.1906C38.4876 22.6003 37.2471 22.8165 35.9498 22.8165C29.8499 22.8165 24.8994 17.8774 24.8994 11.7662C24.8994 10.5826 25.0815 9.44456 25.4343 8.37481C26.8568 3.92508 31.0334 0.71582 35.9498 0.71582C42.0496 0.71582 47.0001 5.6549 47.0001 11.7662Z" fill="#BA9B72"/>
</svg>
