<svg width="188" height="61" viewBox="0 0 188 61" fill="none" xmlns="http://www.w3.org/2000/svg">
<g clip-path="url(#clip0_336_997)">
<path d="M29.7934 43.5825C28.9317 42.1348 27.5593 40.9123 25.6443 39.8989C23.7294 38.8855 21.1921 38.0812 18.0165 37.486L14.7291 36.8908C12.6546 36.4887 11.2503 35.974 10.4843 35.3466C9.71836 34.7193 9.35133 33.8667 9.35133 32.7729C9.35133 31.9043 9.63857 31.1482 10.2131 30.5048C10.7875 29.8614 11.7291 29.3627 13.0536 29.0249C14.3621 28.671 16.1654 28.4941 18.4314 28.4941C20.2984 28.4941 22.1655 28.6067 24.0326 28.8479C25.8997 29.0892 27.5433 29.427 28.9636 29.8453V22.6871C27.5433 22.2849 25.9156 21.9793 24.0805 21.7702C22.2613 21.5611 20.2825 21.4485 18.176 21.4485C12.0961 21.4485 7.54809 22.478 4.53204 24.5209C1.516 26.5638 0 29.427 0 33.1107C0 36.0383 0.957474 38.4029 2.87242 40.2206C4.78737 42.0383 7.89916 43.3412 12.2397 44.1455L15.527 44.789C17.9367 45.2233 19.5803 45.738 20.458 46.3493C21.3357 46.9606 21.7666 47.8614 21.7666 49.0517C21.7666 50.419 21.1761 51.4807 19.9952 52.2528C18.8144 53.0088 16.7239 53.3949 13.7397 53.3949C12.495 53.3949 11.1227 53.3305 9.62261 53.1858C8.12257 53.041 6.62253 52.8319 5.10653 52.5584C3.60648 52.2689 2.21815 51.9311 0.941516 51.545V58.6871C2.79263 59.2179 4.78737 59.6362 6.90977 59.9579C9.03217 60.2635 11.2822 60.4404 13.66 60.4404C17.2824 60.4404 20.3942 59.9579 22.9953 59.0249C25.5965 58.0919 27.5912 56.7246 28.9955 54.9552C30.3838 53.1857 31.086 51.0785 31.086 48.6335C31.086 46.7193 30.6551 45.0303 29.7934 43.5825Z" fill="#BA9B72"/>
<path d="M37.2457 25.0999V59.9417H46.7247V25.0999H37.2457Z" fill="#BA9B72"/>
<path d="M78.9437 44.7569C78.9437 44.7569 79.0235 44.7247 79.0714 44.7087C81.7842 43.7757 83.8747 42.3923 85.3269 40.5746C86.7791 38.7408 87.4972 36.4727 87.4972 33.7542C87.4972 29.4754 85.9333 26.3708 82.8055 24.4245C79.6618 22.4781 75.066 21.5129 69.002 21.5129C67.4381 21.5129 65.8263 21.5773 64.1667 21.706C62.5071 21.8347 60.8953 22.0277 59.3474 22.2529C57.7836 22.4942 56.3793 22.7676 55.0867 23.0411V59.9419H64.3742V45.9312C65.2359 45.9633 66.0497 46.0116 66.8476 46.0438C67.6296 46.0759 68.4594 46.1081 69.2892 46.1081H69.6084L80.6033 59.9419H91.1036L78.9437 44.7569ZM64.3582 39.4003V28.3333C65.188 28.2046 66.0338 28.0759 66.9274 27.9794C67.8211 27.8829 68.7626 27.8186 69.7679 27.8186C71.8265 27.8186 73.5021 28.0116 74.8106 28.4298C76.1192 28.832 77.0926 29.4593 77.7309 30.344C78.3692 31.2127 78.6884 32.3708 78.6884 33.7864C78.6884 35.8454 77.9543 37.3574 76.4862 38.3065C75.034 39.2556 72.7521 39.7221 69.6562 39.7221C69.0179 39.7221 68.4115 39.7221 67.837 39.6899C67.2466 39.6577 66.6881 39.6416 66.1136 39.5773C65.5551 39.529 64.9646 39.4808 64.3582 39.4164V39.4003Z" fill="#BA9B72"/>
<path d="M95.9708 21.9631V59.9417H105.45V21.9631H95.9708Z" fill="#BA9B72"/>
<path d="M141.626 21.9631V43.872C141.626 47.0891 140.86 49.4377 139.344 50.9176C137.828 52.3975 135.499 53.1374 132.371 53.1374C129.243 53.1374 126.897 52.3975 125.381 50.9176C123.865 49.4377 123.099 47.0891 123.099 43.872V21.9631H113.604V43.0999C113.604 46.8318 114.243 49.9846 115.535 52.5744C116.828 55.1642 118.838 57.1106 121.599 58.4296C124.36 59.7487 127.95 60.4243 132.371 60.4243C136.791 60.4243 140.238 59.7647 142.983 58.4296C145.728 57.1106 147.738 55.1481 149.015 52.5744C150.292 49.9846 150.946 46.8318 150.946 43.0999V21.9631H141.626Z" fill="#BA9B72"/>
<path d="M186.723 43.5825C185.862 42.1348 184.489 40.9123 182.574 39.8989C180.659 38.8855 178.122 38.0812 174.946 37.486L171.659 36.8908C169.585 36.4887 168.18 35.974 167.414 35.3466C166.664 34.7354 166.281 33.8667 166.281 32.7729C166.281 31.9043 166.569 31.1482 167.143 30.5048C167.717 29.8614 168.659 29.3627 169.983 29.0249C171.308 28.671 173.095 28.4941 175.361 28.4941C177.228 28.4941 179.111 28.6067 180.963 28.8479C182.83 29.0892 184.473 29.427 185.894 29.8453V22.6871C184.473 22.2849 182.83 21.9793 181.01 21.7702C179.175 21.5611 177.212 21.4485 175.106 21.4485C169.026 21.4485 164.478 22.478 161.462 24.5209C158.446 26.5638 156.93 29.427 156.93 33.1107C156.93 36.0383 157.887 38.4029 159.802 40.2206C161.717 42.0383 164.845 43.3412 169.17 44.1455L172.457 44.789C174.867 45.2233 176.51 45.738 177.388 46.3493C178.266 46.9606 178.697 47.8614 178.697 49.0517C178.697 50.419 178.106 51.4807 176.925 52.2528C175.744 53.0088 173.67 53.3949 170.67 53.3949C169.425 53.3949 168.053 53.3305 166.553 53.1858C165.053 53.041 163.552 52.8319 162.036 52.5584C160.536 52.2689 159.148 51.9311 157.871 51.545V58.6871C159.723 59.2179 161.717 59.6362 163.84 59.9579C165.962 60.2635 168.212 60.4404 170.59 60.4404C174.212 60.4404 177.324 59.9579 179.925 59.0249C182.526 58.0919 184.521 56.7246 185.925 54.9552C187.314 53.1857 188.016 51.0785 188.016 48.6335C188.016 46.7193 187.585 45.0303 186.723 43.5825Z" fill="#BA9B72"/>
<path d="M51.0333 12.3278C51.0333 17.1536 47.1556 21.0785 42.3522 21.0785C37.5489 21.0785 33.6711 17.1696 33.6711 12.3278C33.6711 7.486 37.5649 3.57715 42.3522 3.57715C42.8789 3.57715 43.3735 3.62541 43.8842 3.72192C43.7246 4.23667 43.6289 4.78358 43.6289 5.34659C43.6289 8.3868 46.0864 10.8479 49.0865 10.8479C49.6769 10.8479 50.2833 10.7514 50.8418 10.5584C50.9535 11.1375 51.0174 11.7166 51.0174 12.3278H51.0333Z" fill="#BA9B72"/>
<path d="M53.9377 5.3466C53.9377 7.46992 52.5813 9.28761 50.6982 9.96322C50.1876 10.1402 49.645 10.2367 49.0865 10.2367C46.4056 10.2367 44.2353 8.04901 44.2353 5.3466C44.2353 4.81576 44.3151 4.31711 44.4747 3.83453C45.097 1.87206 46.9322 0.44043 49.0865 0.44043C51.7674 0.44043 53.9377 2.6281 53.9377 5.3466Z" fill="#BA9B72"/>
</g>
<defs>
<clipPath id="clip0_336_997">
<rect width="188" height="60" fill="white" transform="translate(0 0.44043)"/>
</clipPath>
</defs>
</svg>
